<svg width="72" height="72" viewBox="0 0 72 72" fill="none" xmlns="http://www.w3.org/2000/svg">
<rect x="0.5" y="0.5" width="71" height="71" rx="3.5" fill="#686868" stroke="#8F8F8F"/>
<g filter="url(#filter0_d_208_338)">
<rect x="6.48001" y="6.47998" width="59.04" height="59.04" rx="4" fill="url(#paint0_linear_208_338)"/>
</g>
<path fill-rule="evenodd" clip-rule="evenodd" d="M39.7778 23L28.9444 27.9787V30H23V42H28.9444V44.0213L39.7778 49V23Z" fill="#383838"/>
<path d="M43 26C43 26 48.5 29.5 48.5 36C48.5 42.5 43 46 43 46" stroke="#383838" stroke-width="2"/>
<path d="M42 30C42 30 45 32.1 45 36C45 39.9 42 42 42 42" stroke="#383838" stroke-width="2"/>
<defs>
<filter id="filter0_d_208_338" x="2.48001" y="4.47998" width="67.04" height="67.04" filterUnits="userSpaceOnUse" color-interpolation-filters="sRGB">
<feFlood flood-opacity="0" result="BackgroundImageFix"/>
<feColorMatrix in="SourceAlpha" type="matrix" values="0 0 0 0 0 0 0 0 0 0 0 0 0 0 0 0 0 0 127 0" result="hardAlpha"/>
<feOffset dy="2"/>
<feGaussianBlur stdDeviation="2"/>
<feComposite in2="hardAlpha" operator="out"/>
<feColorMatrix type="matrix" values="0 0 0 0 0 0 0 0 0 0 0 0 0 0 0 0 0 0 0.25 0"/>
<feBlend mode="normal" in2="BackgroundImageFix" result="effect1_dropShadow_208_338"/>
<feBlend mode="normal" in="SourceGraphic" in2="effect1_dropShadow_208_338" result="shape"/>
</filter>
<linearGradient id="paint0_linear_208_338" x1="36" y1="6.47998" x2="36" y2="65.52" gradientUnits="userSpaceOnUse">
<stop stop-color="#D9D9D9"/>
<stop offset="0.656666" stop-color="#838383"/>
</linearGradient>
</defs>
</svg>
